<svg width="425" height="227" viewBox="0 0 425 227" fill="none" xmlns="http://www.w3.org/2000/svg">
<g clip-path="url(#clip0)">
<rect width="425" height="227" rx="4" fill="white"/>
<rect width="415" height="227" fill="white"/>
<rect y="10" width="415" height="60" fill="white"/>
<rect x="5" y="10" width="405" height="60" rx="4" fill="white"/>
<path d="M46.1641 43.2324C45.9004 45.4883 45.0654 47.2314 43.6592 48.4619C42.2627 49.6826 40.4023 50.293 38.0781 50.293C35.5586 50.293 33.5371 49.3896 32.0137 47.583C30.5 45.7764 29.7432 43.3594 29.7432 40.332V38.2812C29.7432 36.2988 30.0947 34.5557 30.7979 33.0518C31.5107 31.5479 32.5166 30.3955 33.8154 29.5947C35.1143 28.7842 36.6182 28.3789 38.3271 28.3789C40.5928 28.3789 42.4092 29.0137 43.7764 30.2832C45.1436 31.543 45.9395 33.291 46.1641 35.5273H43.3369C43.0928 33.8281 42.5605 32.5977 41.7402 31.8359C40.9297 31.0742 39.792 30.6934 38.3271 30.6934C36.5303 30.6934 35.1191 31.3574 34.0938 32.6855C33.0781 34.0137 32.5703 35.9033 32.5703 38.3545V40.4199C32.5703 42.7344 33.0537 44.5752 34.0205 45.9424C34.9873 47.3096 36.3398 47.9932 38.0781 47.9932C39.6406 47.9932 40.8369 47.6416 41.667 46.9385C42.5068 46.2256 43.0635 44.9902 43.3369 43.2324H46.1641ZM57.7529 36.582C57.3428 36.5137 56.8984 36.4795 56.4199 36.4795C54.6426 36.4795 53.4365 37.2363 52.8018 38.75V50H50.0918V34.1504H52.7285L52.7725 35.9814C53.6611 34.5654 54.9209 33.8574 56.5518 33.8574C57.0791 33.8574 57.4795 33.9258 57.7529 34.0625V36.582ZM67.042 50.293C64.8936 50.293 63.1455 49.5898 61.7979 48.1836C60.4502 46.7676 59.7764 44.8779 59.7764 42.5146V42.0166C59.7764 40.4443 60.0742 39.043 60.6699 37.8125C61.2754 36.5723 62.1152 35.6055 63.1895 34.9121C64.2734 34.209 65.4453 33.8574 66.7051 33.8574C68.7656 33.8574 70.3672 34.5361 71.5098 35.8936C72.6523 37.251 73.2236 39.1943 73.2236 41.7236V42.8516H62.4863C62.5254 44.4141 62.9795 45.6787 63.8486 46.6455C64.7275 47.6025 65.8408 48.0811 67.1885 48.0811C68.1455 48.0811 68.9561 47.8857 69.6201 47.4951C70.2842 47.1045 70.8652 46.5869 71.3633 45.9424L73.0186 47.2314C71.6904 49.2725 69.6982 50.293 67.042 50.293ZM66.7051 36.084C65.6113 36.084 64.6934 36.4844 63.9512 37.2852C63.209 38.0762 62.75 39.1895 62.5742 40.625H70.5137V40.4199C70.4355 39.043 70.0645 37.9785 69.4004 37.2266C68.7363 36.4648 67.8379 36.084 66.7051 36.084ZM86.6582 50C86.502 49.6875 86.375 49.1309 86.2773 48.3301C85.0176 49.6387 83.5137 50.293 81.7656 50.293C80.2031 50.293 78.9189 49.8535 77.9131 48.9746C76.917 48.0859 76.4189 46.9629 76.4189 45.6055C76.4189 43.9551 77.0439 42.6758 78.2939 41.7676C79.5537 40.8496 81.3213 40.3906 83.5967 40.3906H86.2334V39.1455C86.2334 38.1982 85.9502 37.4463 85.3838 36.8896C84.8174 36.3232 83.9824 36.04 82.8789 36.04C81.9121 36.04 81.1016 36.2842 80.4473 36.7725C79.793 37.2607 79.4658 37.8516 79.4658 38.5449H76.7412C76.7412 37.7539 77.0195 36.9922 77.5762 36.2598C78.1426 35.5176 78.9043 34.9316 79.8613 34.502C80.8281 34.0723 81.8877 33.8574 83.04 33.8574C84.8662 33.8574 86.2969 34.3164 87.332 35.2344C88.3672 36.1426 88.9043 37.3975 88.9434 38.999V46.2939C88.9434 47.749 89.1289 48.9062 89.5 49.7656V50H86.6582ZM82.1611 47.9346C83.0107 47.9346 83.8164 47.7148 84.5781 47.2754C85.3398 46.8359 85.8916 46.2646 86.2334 45.5615V42.3096H84.1094C80.7891 42.3096 79.1289 43.2812 79.1289 45.2246C79.1289 46.0742 79.4121 46.7383 79.9785 47.2168C80.5449 47.6953 81.2725 47.9346 82.1611 47.9346ZM97.3682 30.3125V34.1504H100.327V36.2451H97.3682V46.0742C97.3682 46.709 97.5 47.1875 97.7637 47.5098C98.0273 47.8223 98.4766 47.9785 99.1113 47.9785C99.4238 47.9785 99.8535 47.9199 100.4 47.8027V50C99.6875 50.1953 98.9941 50.293 98.3203 50.293C97.1094 50.293 96.1963 49.9268 95.5811 49.1943C94.9658 48.4619 94.6582 47.4219 94.6582 46.0742V36.2451H91.7725V34.1504H94.6582V30.3125H97.3682ZM110.583 50.293C108.435 50.293 106.687 49.5898 105.339 48.1836C103.991 46.7676 103.317 44.8779 103.317 42.5146V42.0166C103.317 40.4443 103.615 39.043 104.211 37.8125C104.816 36.5723 105.656 35.6055 106.73 34.9121C107.814 34.209 108.986 33.8574 110.246 33.8574C112.307 33.8574 113.908 34.5361 115.051 35.8936C116.193 37.251 116.765 39.1943 116.765 41.7236V42.8516H106.027C106.066 44.4141 106.521 45.6787 107.39 46.6455C108.269 47.6025 109.382 48.0811 110.729 48.0811C111.687 48.0811 112.497 47.8857 113.161 47.4951C113.825 47.1045 114.406 46.5869 114.904 45.9424L116.56 47.2314C115.231 49.2725 113.239 50.293 110.583 50.293ZM110.246 36.084C109.152 36.084 108.234 36.4844 107.492 37.2852C106.75 38.0762 106.291 39.1895 106.115 40.625H114.055V40.4199C113.977 39.043 113.605 37.9785 112.941 37.2266C112.277 36.4648 111.379 36.084 110.246 36.084ZM135.284 39.3799L140.851 28.6719H144.044L136.69 42.0459V50H133.878V42.0459L126.524 28.6719H129.747L135.284 39.3799ZM145.188 41.9287C145.188 40.376 145.491 38.9795 146.097 37.7393C146.712 36.499 147.562 35.542 148.646 34.8682C149.739 34.1943 150.984 33.8574 152.381 33.8574C154.539 33.8574 156.282 34.6045 157.61 36.0986C158.948 37.5928 159.617 39.5801 159.617 42.0605V42.251C159.617 43.7939 159.319 45.1807 158.724 46.4111C158.138 47.6318 157.293 48.584 156.189 49.2676C155.096 49.9512 153.836 50.293 152.41 50.293C150.262 50.293 148.519 49.5459 147.181 48.0518C145.853 46.5576 145.188 44.5801 145.188 42.1191V41.9287ZM147.913 42.251C147.913 44.0088 148.318 45.4199 149.129 46.4844C149.949 47.5488 151.043 48.0811 152.41 48.0811C153.787 48.0811 154.881 47.5439 155.691 46.4697C156.502 45.3857 156.907 43.8721 156.907 41.9287C156.907 40.1904 156.492 38.7842 155.662 37.71C154.842 36.626 153.748 36.084 152.381 36.084C151.043 36.084 149.964 36.6162 149.144 37.6807C148.323 38.7451 147.913 40.2686 147.913 42.251ZM173.301 48.4326C172.246 49.6729 170.698 50.293 168.657 50.293C166.968 50.293 165.679 49.8047 164.79 48.8281C163.911 47.8418 163.467 46.3867 163.457 44.4629V34.1504H166.167V44.3896C166.167 46.792 167.144 47.9932 169.097 47.9932C171.167 47.9932 172.544 47.2217 173.228 45.6787V34.1504H175.938V50H173.359L173.301 48.4326ZM188.229 36.582C187.819 36.5137 187.375 36.4795 186.896 36.4795C185.119 36.4795 183.913 37.2363 183.278 38.75V50H180.568V34.1504H183.205L183.249 35.9814C184.138 34.5654 185.397 33.8574 187.028 33.8574C187.556 33.8574 187.956 33.9258 188.229 34.0625V36.582ZM211.378 44.4336H202.442L200.436 50H197.535L205.68 28.6719H208.141L216.3 50H213.414L211.378 44.4336ZM203.292 42.1191H210.543L206.91 32.1436L203.292 42.1191ZM232.635 42.251C232.635 44.6631 232.083 46.6064 230.979 48.0811C229.876 49.5557 228.382 50.293 226.497 50.293C224.573 50.293 223.06 49.6826 221.956 48.4619V56.0938H219.246V34.1504H221.722L221.854 35.9082C222.957 34.541 224.49 33.8574 226.453 33.8574C228.357 33.8574 229.861 34.5752 230.965 36.0107C232.078 37.4463 232.635 39.4434 232.635 42.002V42.251ZM229.925 41.9434C229.925 40.1562 229.544 38.7451 228.782 37.71C228.021 36.6748 226.976 36.1572 225.647 36.1572C224.007 36.1572 222.776 36.8848 221.956 38.3398V45.9131C222.767 47.3584 224.007 48.0811 225.677 48.0811C226.976 48.0811 228.006 47.5684 228.768 46.543C229.539 45.5078 229.925 43.9746 229.925 41.9434ZM249.98 42.251C249.98 44.6631 249.429 46.6064 248.325 48.0811C247.222 49.5557 245.728 50.293 243.843 50.293C241.919 50.293 240.405 49.6826 239.302 48.4619V56.0938H236.592V34.1504H239.067L239.199 35.9082C240.303 34.541 241.836 33.8574 243.799 33.8574C245.703 33.8574 247.207 34.5752 248.311 36.0107C249.424 37.4463 249.98 39.4434 249.98 42.002V42.251ZM247.271 41.9434C247.271 40.1562 246.89 38.7451 246.128 37.71C245.366 36.6748 244.321 36.1572 242.993 36.1572C241.353 36.1572 240.122 36.8848 239.302 38.3398V45.9131C240.112 47.3584 241.353 48.0811 243.022 48.0811C244.321 48.0811 245.352 47.5684 246.113 46.543C246.885 45.5078 247.271 43.9746 247.271 41.9434ZM256.882 50H254.172V27.5H256.882V50ZM264.677 50H261.967V34.1504H264.677V50ZM261.747 29.9463C261.747 29.5068 261.879 29.1357 262.143 28.833C262.416 28.5303 262.816 28.3789 263.344 28.3789C263.871 28.3789 264.271 28.5303 264.545 28.833C264.818 29.1357 264.955 29.5068 264.955 29.9463C264.955 30.3857 264.818 30.752 264.545 31.0449C264.271 31.3379 263.871 31.4844 263.344 31.4844C262.816 31.4844 262.416 31.3379 262.143 31.0449C261.879 30.752 261.747 30.3857 261.747 29.9463ZM275.885 48.0811C276.852 48.0811 277.696 47.7881 278.419 47.2021C279.142 46.6162 279.542 45.8838 279.62 45.0049H282.184C282.135 45.9131 281.822 46.7773 281.246 47.5977C280.67 48.418 279.898 49.0723 278.932 49.5605C277.975 50.0488 276.959 50.293 275.885 50.293C273.727 50.293 272.008 49.5752 270.729 48.1396C269.459 46.6943 268.824 44.7217 268.824 42.2217V41.7676C268.824 40.2246 269.107 38.8525 269.674 37.6514C270.24 36.4502 271.051 35.5176 272.105 34.8535C273.17 34.1895 274.425 33.8574 275.87 33.8574C277.647 33.8574 279.122 34.3896 280.294 35.4541C281.476 36.5186 282.105 37.9004 282.184 39.5996H279.62C279.542 38.5742 279.151 37.7344 278.448 37.0801C277.755 36.416 276.896 36.084 275.87 36.084C274.493 36.084 273.424 36.582 272.662 37.5781C271.91 38.5645 271.534 39.9951 271.534 41.8701V42.3828C271.534 44.209 271.91 45.6152 272.662 46.6016C273.414 47.5879 274.488 48.0811 275.885 48.0811ZM295.516 50C295.359 49.6875 295.232 49.1309 295.135 48.3301C293.875 49.6387 292.371 50.293 290.623 50.293C289.061 50.293 287.776 49.8535 286.771 48.9746C285.774 48.0859 285.276 46.9629 285.276 45.6055C285.276 43.9551 285.901 42.6758 287.151 41.7676C288.411 40.8496 290.179 40.3906 292.454 40.3906H295.091V39.1455C295.091 38.1982 294.808 37.4463 294.241 36.8896C293.675 36.3232 292.84 36.04 291.736 36.04C290.77 36.04 289.959 36.2842 289.305 36.7725C288.65 37.2607 288.323 37.8516 288.323 38.5449H285.599C285.599 37.7539 285.877 36.9922 286.434 36.2598C287 35.5176 287.762 34.9316 288.719 34.502C289.686 34.0723 290.745 33.8574 291.897 33.8574C293.724 33.8574 295.154 34.3164 296.189 35.2344C297.225 36.1426 297.762 37.3975 297.801 38.999V46.2939C297.801 47.749 297.986 48.9062 298.357 49.7656V50H295.516ZM291.019 47.9346C291.868 47.9346 292.674 47.7148 293.436 47.2754C294.197 46.8359 294.749 46.2646 295.091 45.5615V42.3096H292.967C289.646 42.3096 287.986 43.2812 287.986 45.2246C287.986 46.0742 288.27 46.7383 288.836 47.2168C289.402 47.6953 290.13 47.9346 291.019 47.9346ZM306.226 30.3125V34.1504H309.185V36.2451H306.226V46.0742C306.226 46.709 306.357 47.1875 306.621 47.5098C306.885 47.8223 307.334 47.9785 307.969 47.9785C308.281 47.9785 308.711 47.9199 309.258 47.8027V50C308.545 50.1953 307.852 50.293 307.178 50.293C305.967 50.293 305.054 49.9268 304.438 49.1943C303.823 48.4619 303.516 47.4219 303.516 46.0742V36.2451H300.63V34.1504H303.516V30.3125H306.226ZM315.808 50H313.098V34.1504H315.808V50ZM312.878 29.9463C312.878 29.5068 313.01 29.1357 313.273 28.833C313.547 28.5303 313.947 28.3789 314.475 28.3789C315.002 28.3789 315.402 28.5303 315.676 28.833C315.949 29.1357 316.086 29.5068 316.086 29.9463C316.086 30.3857 315.949 30.752 315.676 31.0449C315.402 31.3379 315.002 31.4844 314.475 31.4844C313.947 31.4844 313.547 31.3379 313.273 31.0449C313.01 30.752 312.878 30.3857 312.878 29.9463ZM319.94 41.9287C319.94 40.376 320.243 38.9795 320.849 37.7393C321.464 36.499 322.313 35.542 323.397 34.8682C324.491 34.1943 325.736 33.8574 327.133 33.8574C329.291 33.8574 331.034 34.6045 332.362 36.0986C333.7 37.5928 334.369 39.5801 334.369 42.0605V42.251C334.369 43.7939 334.071 45.1807 333.476 46.4111C332.89 47.6318 332.045 48.584 330.941 49.2676C329.848 49.9512 328.588 50.293 327.162 50.293C325.014 50.293 323.271 49.5459 321.933 48.0518C320.604 46.5576 319.94 44.5801 319.94 42.1191V41.9287ZM322.665 42.251C322.665 44.0088 323.07 45.4199 323.881 46.4844C324.701 47.5488 325.795 48.0811 327.162 48.0811C328.539 48.0811 329.633 47.5439 330.443 46.4697C331.254 45.3857 331.659 43.8721 331.659 41.9287C331.659 40.1904 331.244 38.7842 330.414 37.71C329.594 36.626 328.5 36.084 327.133 36.084C325.795 36.084 324.716 36.6162 323.896 37.6807C323.075 38.7451 322.665 40.2686 322.665 42.251ZM340.831 34.1504L340.919 36.1426C342.13 34.6191 343.712 33.8574 345.665 33.8574C349.015 33.8574 350.704 35.7471 350.733 39.5264V50H348.023V39.5117C348.014 38.3691 347.75 37.5244 347.232 36.9775C346.725 36.4307 345.929 36.1572 344.845 36.1572C343.966 36.1572 343.194 36.3916 342.53 36.8604C341.866 37.3291 341.349 37.9443 340.978 38.7061V50H338.268V34.1504H340.831Z" fill="black"/>
<rect x="41" y="81" width="353" height="58" rx="3" fill="white" stroke="#3F51B5" stroke-width="2"/>
<path d="M59.5735 109.428H53.4114V114.467H60.5696V116H51.5364V101.781H60.472V103.324H53.4114V107.895H59.5735V109.428ZM64.3294 105.434L64.388 106.762C65.1953 105.746 66.25 105.238 67.5521 105.238C69.7851 105.238 70.9114 106.498 70.931 109.018V116H69.1243V109.008C69.1178 108.246 68.942 107.683 68.597 107.318C68.2584 106.954 67.7278 106.771 67.0052 106.771C66.4193 106.771 65.9049 106.928 65.4622 107.24C65.0195 107.553 64.6745 107.963 64.4271 108.471V116H62.6204V105.434H64.3294ZM76.1068 102.875V105.434H78.0794V106.83H76.1068V113.383C76.1068 113.806 76.1946 114.125 76.3704 114.34C76.5462 114.548 76.8457 114.652 77.2689 114.652C77.4772 114.652 77.7637 114.613 78.1282 114.535V116C77.653 116.13 77.1907 116.195 76.7415 116.195C75.9342 116.195 75.3255 115.951 74.9153 115.463C74.5052 114.975 74.3001 114.281 74.3001 113.383V106.83H72.3763V105.434H74.3001V102.875H76.1068ZM84.5833 116.195C83.151 116.195 81.9857 115.727 81.0872 114.789C80.1888 113.845 79.7396 112.585 79.7396 111.01V110.678C79.7396 109.63 79.9381 108.695 80.3353 107.875C80.7389 107.048 81.2988 106.404 82.015 105.941C82.7376 105.473 83.5189 105.238 84.3587 105.238C85.7324 105.238 86.8001 105.691 87.5618 106.596C88.3235 107.501 88.7044 108.796 88.7044 110.482V111.234H81.5462C81.5722 112.276 81.875 113.119 82.4544 113.764C83.0403 114.402 83.7825 114.721 84.681 114.721C85.319 114.721 85.8594 114.59 86.3021 114.33C86.7448 114.07 87.1321 113.725 87.4642 113.295L88.5677 114.154C87.6823 115.515 86.3541 116.195 84.5833 116.195ZM84.3587 106.723C83.6295 106.723 83.0176 106.99 82.5228 107.523C82.028 108.051 81.722 108.793 81.6048 109.75H86.8978V109.613C86.8457 108.695 86.5983 107.986 86.1556 107.484C85.7129 106.977 85.1139 106.723 84.3587 106.723ZM95.9114 107.055C95.638 107.009 95.3418 106.986 95.0228 106.986C93.8379 106.986 93.0338 107.491 92.6107 108.5V116H90.804V105.434H92.5618L92.5911 106.654C93.1836 105.71 94.0234 105.238 95.1107 105.238C95.4622 105.238 95.7291 105.284 95.9114 105.375V107.055ZM107.161 108.92L110.872 101.781H113.001L108.099 110.697V116H106.224V110.697L101.322 101.781H103.47L107.161 108.92ZM113.431 110.619C113.431 109.584 113.633 108.653 114.036 107.826C114.447 106.999 115.013 106.361 115.736 105.912C116.465 105.463 117.295 105.238 118.226 105.238C119.665 105.238 120.827 105.736 121.712 106.732C122.604 107.729 123.05 109.053 123.05 110.707V110.834C123.05 111.863 122.852 112.787 122.454 113.607C122.064 114.421 121.501 115.056 120.765 115.512C120.036 115.967 119.196 116.195 118.245 116.195C116.813 116.195 115.651 115.697 114.759 114.701C113.874 113.705 113.431 112.387 113.431 110.746V110.619ZM115.247 110.834C115.247 112.006 115.518 112.947 116.058 113.656C116.605 114.366 117.334 114.721 118.245 114.721C119.163 114.721 119.893 114.363 120.433 113.646C120.973 112.924 121.243 111.915 121.243 110.619C121.243 109.46 120.967 108.523 120.413 107.807C119.867 107.084 119.137 106.723 118.226 106.723C117.334 106.723 116.615 107.077 116.068 107.787C115.521 108.497 115.247 109.512 115.247 110.834ZM131.839 114.955C131.136 115.782 130.104 116.195 128.743 116.195C127.617 116.195 126.758 115.87 126.165 115.219C125.579 114.561 125.283 113.591 125.277 112.309V105.434H127.083V112.26C127.083 113.861 127.734 114.662 129.036 114.662C130.417 114.662 131.335 114.148 131.79 113.119V105.434H133.597V116H131.878L131.839 114.955ZM141.458 107.055C141.185 107.009 140.889 106.986 140.57 106.986C139.385 106.986 138.581 107.491 138.158 108.5V116H136.351V105.434H138.109L138.138 106.654C138.73 105.71 139.57 105.238 140.658 105.238C141.009 105.238 141.276 105.284 141.458 105.375V107.055ZM156.224 112.289H150.267L148.929 116H146.995L152.425 101.781H154.066L159.505 116H157.581L156.224 112.289ZM150.833 110.746H155.667L153.245 104.096L150.833 110.746ZM170.062 110.834C170.062 112.442 169.694 113.738 168.958 114.721C168.223 115.704 167.227 116.195 165.97 116.195C164.687 116.195 163.678 115.788 162.943 114.975V120.062H161.136V105.434H162.786L162.874 106.605C163.61 105.694 164.632 105.238 165.941 105.238C167.21 105.238 168.213 105.717 168.949 106.674C169.691 107.631 170.062 108.962 170.062 110.668V110.834ZM168.255 110.629C168.255 109.438 168.001 108.497 167.493 107.807C166.986 107.117 166.289 106.771 165.404 106.771C164.31 106.771 163.49 107.257 162.943 108.227V113.275C163.483 114.239 164.31 114.721 165.423 114.721C166.289 114.721 166.976 114.379 167.484 113.695C167.998 113.005 168.255 111.983 168.255 110.629ZM181.292 110.834C181.292 112.442 180.924 113.738 180.189 114.721C179.453 115.704 178.457 116.195 177.201 116.195C175.918 116.195 174.909 115.788 174.173 114.975V120.062H172.367V105.434H174.017L174.105 106.605C174.84 105.694 175.863 105.238 177.171 105.238C178.441 105.238 179.443 105.717 180.179 106.674C180.921 107.631 181.292 108.962 181.292 110.668V110.834ZM179.486 110.629C179.486 109.438 179.232 108.497 178.724 107.807C178.216 107.117 177.52 106.771 176.634 106.771C175.54 106.771 174.72 107.257 174.173 108.227V113.275C174.714 114.239 175.54 114.721 176.654 114.721C177.52 114.721 178.206 114.379 178.714 113.695C179.228 113.005 179.486 111.983 179.486 110.629ZM185.56 116H183.753V101H185.56V116ZM190.423 116H188.617V105.434H190.423V116ZM188.47 102.631C188.47 102.338 188.558 102.09 188.734 101.889C188.916 101.687 189.183 101.586 189.534 101.586C189.886 101.586 190.153 101.687 190.335 101.889C190.518 102.09 190.609 102.338 190.609 102.631C190.609 102.924 190.518 103.168 190.335 103.363C190.153 103.559 189.886 103.656 189.534 103.656C189.183 103.656 188.916 103.559 188.734 103.363C188.558 103.168 188.47 102.924 188.47 102.631ZM197.562 114.721C198.206 114.721 198.77 114.525 199.251 114.135C199.733 113.744 200 113.256 200.052 112.67H201.761C201.728 113.275 201.52 113.852 201.136 114.398C200.752 114.945 200.238 115.382 199.593 115.707C198.955 116.033 198.278 116.195 197.562 116.195C196.123 116.195 194.977 115.717 194.124 114.76C193.278 113.796 192.855 112.481 192.855 110.814V110.512C192.855 109.483 193.044 108.568 193.421 107.768C193.799 106.967 194.339 106.345 195.042 105.902C195.752 105.46 196.589 105.238 197.552 105.238C198.737 105.238 199.72 105.593 200.501 106.303C201.289 107.012 201.709 107.934 201.761 109.066H200.052C200 108.383 199.74 107.823 199.271 107.387C198.809 106.944 198.236 106.723 197.552 106.723C196.634 106.723 195.921 107.055 195.413 107.719C194.912 108.376 194.661 109.33 194.661 110.58V110.922C194.661 112.139 194.912 113.077 195.413 113.734C195.915 114.392 196.631 114.721 197.562 114.721ZM210.316 116C210.212 115.792 210.127 115.421 210.062 114.887C209.222 115.759 208.219 116.195 207.054 116.195C206.012 116.195 205.156 115.902 204.486 115.316C203.822 114.724 203.49 113.975 203.49 113.07C203.49 111.97 203.906 111.117 204.74 110.512C205.579 109.9 206.758 109.594 208.275 109.594H210.033V108.764C210.033 108.132 209.844 107.631 209.466 107.26C209.089 106.882 208.532 106.693 207.796 106.693C207.152 106.693 206.611 106.856 206.175 107.182C205.739 107.507 205.521 107.901 205.521 108.363H203.704C203.704 107.836 203.89 107.328 204.261 106.84C204.639 106.345 205.146 105.954 205.784 105.668C206.429 105.382 207.135 105.238 207.904 105.238C209.121 105.238 210.075 105.544 210.765 106.156C211.455 106.762 211.813 107.598 211.839 108.666V113.529C211.839 114.499 211.963 115.271 212.21 115.844V116H210.316ZM207.318 114.623C207.884 114.623 208.421 114.477 208.929 114.184C209.437 113.891 209.805 113.51 210.033 113.041V110.873H208.617C206.403 110.873 205.296 111.521 205.296 112.816C205.296 113.383 205.485 113.826 205.863 114.145C206.24 114.464 206.725 114.623 207.318 114.623ZM217.122 102.875V105.434H219.095V106.83H217.122V113.383C217.122 113.806 217.21 114.125 217.386 114.34C217.562 114.548 217.861 114.652 218.284 114.652C218.493 114.652 218.779 114.613 219.144 114.535V116C218.669 116.13 218.206 116.195 217.757 116.195C216.95 116.195 216.341 115.951 215.931 115.463C215.521 114.975 215.316 114.281 215.316 113.383V106.83H213.392V105.434H215.316V102.875H217.122ZM223.177 116H221.37V105.434H223.177V116ZM221.224 102.631C221.224 102.338 221.312 102.09 221.488 101.889C221.67 101.687 221.937 101.586 222.288 101.586C222.64 101.586 222.907 101.687 223.089 101.889C223.271 102.09 223.363 102.338 223.363 102.631C223.363 102.924 223.271 103.168 223.089 103.363C222.907 103.559 222.64 103.656 222.288 103.656C221.937 103.656 221.67 103.559 221.488 103.363C221.312 103.168 221.224 102.924 221.224 102.631ZM225.599 110.619C225.599 109.584 225.801 108.653 226.204 107.826C226.615 106.999 227.181 106.361 227.904 105.912C228.633 105.463 229.463 105.238 230.394 105.238C231.833 105.238 232.995 105.736 233.88 106.732C234.772 107.729 235.218 109.053 235.218 110.707V110.834C235.218 111.863 235.02 112.787 234.622 113.607C234.232 114.421 233.669 115.056 232.933 115.512C232.204 115.967 231.364 116.195 230.413 116.195C228.981 116.195 227.819 115.697 226.927 114.701C226.042 113.705 225.599 112.387 225.599 110.746V110.619ZM227.415 110.834C227.415 112.006 227.686 112.947 228.226 113.656C228.773 114.366 229.502 114.721 230.413 114.721C231.331 114.721 232.061 114.363 232.601 113.646C233.141 112.924 233.411 111.915 233.411 110.619C233.411 109.46 233.135 108.523 232.581 107.807C232.034 107.084 231.305 106.723 230.394 106.723C229.502 106.723 228.783 107.077 228.236 107.787C227.689 108.497 227.415 109.512 227.415 110.834ZM239.193 105.434L239.251 106.762C240.059 105.746 241.113 105.238 242.415 105.238C244.648 105.238 245.775 106.498 245.794 109.018V116H243.988V109.008C243.981 108.246 243.805 107.683 243.46 107.318C243.122 106.954 242.591 106.771 241.868 106.771C241.283 106.771 240.768 106.928 240.326 107.24C239.883 107.553 239.538 107.963 239.29 108.471V116H237.484V105.434H239.193ZM247.865 105.785L246.839 105.082C247.445 104.236 247.757 103.344 247.777 102.406V101H249.564V102.27C249.557 102.921 249.395 103.572 249.076 104.223C248.763 104.867 248.359 105.388 247.865 105.785ZM256.8 113.197C256.8 112.709 256.615 112.331 256.243 112.064C255.879 111.791 255.238 111.557 254.32 111.361C253.408 111.166 252.682 110.932 252.142 110.658C251.608 110.385 251.211 110.059 250.951 109.682C250.697 109.304 250.57 108.855 250.57 108.334C250.57 107.468 250.934 106.736 251.663 106.137C252.399 105.538 253.337 105.238 254.476 105.238C255.674 105.238 256.644 105.548 257.386 106.166C258.135 106.785 258.509 107.576 258.509 108.539H256.693C256.693 108.044 256.481 107.618 256.058 107.26C255.641 106.902 255.114 106.723 254.476 106.723C253.818 106.723 253.304 106.866 252.933 107.152C252.562 107.439 252.376 107.813 252.376 108.275C252.376 108.712 252.549 109.04 252.894 109.262C253.239 109.483 253.861 109.695 254.759 109.896C255.664 110.098 256.396 110.339 256.956 110.619C257.516 110.899 257.93 111.238 258.197 111.635C258.47 112.025 258.607 112.504 258.607 113.07C258.607 114.014 258.229 114.773 257.474 115.346C256.719 115.912 255.739 116.195 254.534 116.195C253.688 116.195 252.939 116.046 252.288 115.746C251.637 115.447 251.126 115.03 250.755 114.496C250.391 113.956 250.208 113.373 250.208 112.748H252.015C252.048 113.354 252.288 113.835 252.738 114.193C253.193 114.545 253.792 114.721 254.534 114.721C255.218 114.721 255.765 114.584 256.175 114.311C256.592 114.031 256.8 113.66 256.8 113.197ZM277.132 116H275.247L268.089 105.043V116H266.204V101.781H268.089L275.267 112.787V101.781H277.132V116ZM286.702 116C286.598 115.792 286.514 115.421 286.449 114.887C285.609 115.759 284.606 116.195 283.441 116.195C282.399 116.195 281.543 115.902 280.872 115.316C280.208 114.724 279.876 113.975 279.876 113.07C279.876 111.97 280.293 111.117 281.126 110.512C281.966 109.9 283.145 109.594 284.661 109.594H286.419V108.764C286.419 108.132 286.23 107.631 285.853 107.26C285.475 106.882 284.919 106.693 284.183 106.693C283.538 106.693 282.998 106.856 282.562 107.182C282.126 107.507 281.908 107.901 281.908 108.363H280.091C280.091 107.836 280.277 107.328 280.648 106.84C281.025 106.345 281.533 105.954 282.171 105.668C282.816 105.382 283.522 105.238 284.29 105.238C285.508 105.238 286.462 105.544 287.152 106.156C287.842 106.762 288.2 107.598 288.226 108.666V113.529C288.226 114.499 288.35 115.271 288.597 115.844V116H286.702ZM283.704 114.623C284.271 114.623 284.808 114.477 285.316 114.184C285.824 113.891 286.191 113.51 286.419 113.041V110.873H285.003C282.79 110.873 281.683 111.521 281.683 112.816C281.683 113.383 281.872 113.826 282.249 114.145C282.627 114.464 283.112 114.623 283.704 114.623ZM292.757 105.434L292.806 106.605C293.581 105.694 294.626 105.238 295.941 105.238C297.419 105.238 298.424 105.805 298.958 106.938C299.31 106.43 299.766 106.02 300.326 105.707C300.892 105.395 301.559 105.238 302.327 105.238C304.645 105.238 305.824 106.465 305.863 108.92V116H304.056V109.027C304.056 108.272 303.883 107.709 303.538 107.338C303.193 106.96 302.614 106.771 301.8 106.771C301.13 106.771 300.573 106.973 300.13 107.377C299.687 107.774 299.43 108.311 299.359 108.988V116H297.542V109.076C297.542 107.54 296.79 106.771 295.286 106.771C294.102 106.771 293.291 107.276 292.855 108.285V116H291.048V105.434H292.757ZM312.982 116.195C311.549 116.195 310.384 115.727 309.486 114.789C308.587 113.845 308.138 112.585 308.138 111.01V110.678C308.138 109.63 308.337 108.695 308.734 107.875C309.137 107.048 309.697 106.404 310.413 105.941C311.136 105.473 311.917 105.238 312.757 105.238C314.131 105.238 315.199 105.691 315.96 106.596C316.722 107.501 317.103 108.796 317.103 110.482V111.234H309.945C309.971 112.276 310.273 113.119 310.853 113.764C311.439 114.402 312.181 114.721 313.079 114.721C313.717 114.721 314.258 114.59 314.701 114.33C315.143 114.07 315.531 113.725 315.863 113.295L316.966 114.154C316.081 115.515 314.753 116.195 312.982 116.195ZM312.757 106.723C312.028 106.723 311.416 106.99 310.921 107.523C310.426 108.051 310.12 108.793 310.003 109.75H315.296V109.613C315.244 108.695 314.997 107.986 314.554 107.484C314.111 106.977 313.512 106.723 312.757 106.723Z" fill="black" fill-opacity="0.38"/>
<rect x="40" y="157" width="265" height="60" rx="4" fill="#3F51B5"/>
<path d="M58.6426 191.27C58.6426 190.716 58.4473 190.293 58.0566 190C57.666 189.701 56.9629 189.388 55.9473 189.062C54.9316 188.73 54.1276 188.405 53.5352 188.086C51.9206 187.214 51.1133 186.038 51.1133 184.561C51.1133 183.792 51.3281 183.109 51.7578 182.51C52.194 181.904 52.8158 181.432 53.623 181.094C54.4368 180.755 55.3483 180.586 56.3574 180.586C57.373 180.586 58.278 180.771 59.0723 181.143C59.8665 181.507 60.4818 182.025 60.918 182.695C61.3607 183.366 61.582 184.128 61.582 184.98H58.6523C58.6523 184.329 58.4473 183.825 58.0371 183.467C57.627 183.102 57.0508 182.92 56.3086 182.92C55.5924 182.92 55.0358 183.073 54.6387 183.379C54.2415 183.678 54.043 184.076 54.043 184.57C54.043 185.033 54.2741 185.42 54.7363 185.732C55.2051 186.045 55.8919 186.338 56.7969 186.611C58.4635 187.113 59.6777 187.734 60.4395 188.477C61.2012 189.219 61.582 190.143 61.582 191.25C61.582 192.48 61.1165 193.447 60.1855 194.15C59.2546 194.847 58.0013 195.195 56.4258 195.195C55.332 195.195 54.3359 194.997 53.4375 194.6C52.5391 194.196 51.8522 193.646 51.377 192.949C50.9082 192.253 50.6738 191.445 50.6738 190.527H53.6133C53.6133 192.096 54.5508 192.881 56.4258 192.881C57.1224 192.881 57.666 192.741 58.0566 192.461C58.4473 192.174 58.6426 191.777 58.6426 191.27ZM69.5117 195C69.3815 194.746 69.2871 194.43 69.2285 194.053C68.5449 194.814 67.6562 195.195 66.5625 195.195C65.5273 195.195 64.668 194.896 63.9844 194.297C63.3073 193.698 62.9688 192.943 62.9688 192.031C62.9688 190.911 63.3822 190.052 64.209 189.453C65.0423 188.854 66.2435 188.551 67.8125 188.545H69.1113V187.939C69.1113 187.451 68.9844 187.061 68.7305 186.768C68.4831 186.475 68.0892 186.328 67.5488 186.328C67.0736 186.328 66.6992 186.442 66.4258 186.67C66.1589 186.898 66.0254 187.21 66.0254 187.607H63.2031C63.2031 186.995 63.3919 186.429 63.7695 185.908C64.1471 185.387 64.681 184.98 65.3711 184.688C66.0612 184.388 66.8359 184.238 67.6953 184.238C68.9974 184.238 70.0293 184.567 70.791 185.225C71.5592 185.876 71.9434 186.794 71.9434 187.979V192.559C71.9499 193.561 72.0898 194.32 72.3633 194.834V195H69.5117ZM67.1777 193.037C67.5944 193.037 67.9785 192.946 68.3301 192.764C68.6816 192.575 68.9421 192.324 69.1113 192.012V190.195H68.0566C66.6439 190.195 65.8919 190.684 65.8008 191.66L65.791 191.826C65.791 192.178 65.9147 192.467 66.1621 192.695C66.4095 192.923 66.748 193.037 67.1777 193.037ZM77.9102 191.553L79.873 184.434H82.8223L79.2578 195H76.5625L72.998 184.434H75.9473L77.9102 191.553ZM88.7988 195.195C87.2493 195.195 85.9863 194.72 85.0098 193.77C84.0397 192.819 83.5547 191.553 83.5547 189.971V189.697C83.5547 188.636 83.7598 187.689 84.1699 186.855C84.5801 186.016 85.1595 185.371 85.9082 184.922C86.6634 184.466 87.5228 184.238 88.4863 184.238C89.9316 184.238 91.0677 184.694 91.8945 185.605C92.7279 186.517 93.1445 187.809 93.1445 189.482V190.635H86.416C86.5072 191.325 86.7806 191.878 87.2363 192.295C87.6986 192.712 88.2812 192.92 88.9844 192.92C90.0716 192.92 90.9212 192.526 91.5332 191.738L92.9199 193.291C92.4967 193.89 91.9238 194.359 91.2012 194.697C90.4785 195.029 89.6777 195.195 88.7988 195.195ZM88.4766 186.523C87.9167 186.523 87.4609 186.712 87.1094 187.09C86.7643 187.467 86.543 188.008 86.4453 188.711H90.3711V188.486C90.3581 187.861 90.1888 187.38 89.8633 187.041C89.5378 186.696 89.0755 186.523 88.4766 186.523ZM107.949 192.07H102.812L101.836 195H98.7207L104.014 180.781H106.729L112.051 195H108.936L107.949 192.07ZM103.604 189.697H107.158L105.371 184.375L103.604 189.697ZM115.322 184.434L115.41 185.654C116.165 184.71 117.178 184.238 118.447 184.238C119.567 184.238 120.4 184.567 120.947 185.225C121.494 185.882 121.774 186.865 121.787 188.174V195H118.965V188.242C118.965 187.643 118.835 187.21 118.574 186.943C118.314 186.67 117.881 186.533 117.275 186.533C116.481 186.533 115.885 186.872 115.488 187.549V195H112.666V184.434H115.322ZM123.496 189.639C123.496 187.992 123.864 186.68 124.6 185.703C125.342 184.727 126.354 184.238 127.637 184.238C128.665 184.238 129.515 184.622 130.186 185.391V180H133.018V195H130.469L130.332 193.877C129.629 194.756 128.724 195.195 127.617 195.195C126.374 195.195 125.374 194.707 124.619 193.73C123.87 192.747 123.496 191.383 123.496 189.639ZM126.318 189.844C126.318 190.833 126.491 191.592 126.836 192.119C127.181 192.646 127.682 192.91 128.34 192.91C129.212 192.91 129.827 192.542 130.186 191.807V187.637C129.834 186.901 129.225 186.533 128.359 186.533C126.999 186.533 126.318 187.637 126.318 189.844ZM148.398 192.07H143.262L142.285 195H139.17L144.463 180.781H147.178L152.5 195H149.385L148.398 192.07ZM144.053 189.697H147.607L145.82 184.375L144.053 189.697ZM153.203 189.639C153.203 187.992 153.571 186.68 154.307 185.703C155.049 184.727 156.061 184.238 157.344 184.238C158.372 184.238 159.222 184.622 159.893 185.391V180H162.725V195H160.176L160.039 193.877C159.336 194.756 158.431 195.195 157.324 195.195C156.081 195.195 155.081 194.707 154.326 193.73C153.577 192.747 153.203 191.383 153.203 189.639ZM156.025 189.844C156.025 190.833 156.198 191.592 156.543 192.119C156.888 192.646 157.389 192.91 158.047 192.91C158.919 192.91 159.535 192.542 159.893 191.807V187.637C159.541 186.901 158.932 186.533 158.066 186.533C156.706 186.533 156.025 187.637 156.025 189.844ZM164.473 189.639C164.473 187.992 164.84 186.68 165.576 185.703C166.318 184.727 167.331 184.238 168.613 184.238C169.642 184.238 170.492 184.622 171.162 185.391V180H173.994V195H171.445L171.309 193.877C170.605 194.756 169.701 195.195 168.594 195.195C167.35 195.195 166.351 194.707 165.596 193.73C164.847 192.747 164.473 191.383 164.473 189.639ZM167.295 189.844C167.295 190.833 167.467 191.592 167.812 192.119C168.158 192.646 168.659 192.91 169.316 192.91C170.189 192.91 170.804 192.542 171.162 191.807V187.637C170.811 186.901 170.202 186.533 169.336 186.533C167.975 186.533 167.295 187.637 167.295 189.844ZM192.51 190.264C192.399 191.794 191.833 192.998 190.811 193.877C189.795 194.756 188.454 195.195 186.787 195.195C184.964 195.195 183.529 194.583 182.48 193.359C181.439 192.129 180.918 190.443 180.918 188.301V187.432C180.918 186.064 181.159 184.86 181.641 183.818C182.122 182.777 182.809 181.979 183.701 181.426C184.6 180.866 185.641 180.586 186.826 180.586C188.467 180.586 189.788 181.025 190.791 181.904C191.794 182.783 192.373 184.017 192.529 185.605H189.6C189.528 184.688 189.271 184.023 188.828 183.613C188.392 183.197 187.725 182.988 186.826 182.988C185.85 182.988 185.117 183.34 184.629 184.043C184.147 184.74 183.9 185.824 183.887 187.295V188.369C183.887 189.906 184.118 191.029 184.58 191.738C185.049 192.448 185.785 192.803 186.787 192.803C187.692 192.803 188.366 192.598 188.809 192.188C189.258 191.771 189.515 191.13 189.58 190.264H192.51ZM193.809 189.619C193.809 188.571 194.01 187.637 194.414 186.816C194.818 185.996 195.397 185.361 196.152 184.912C196.914 184.463 197.796 184.238 198.799 184.238C200.225 184.238 201.387 184.674 202.285 185.547C203.19 186.419 203.695 187.604 203.799 189.102L203.818 189.824C203.818 191.445 203.366 192.747 202.461 193.73C201.556 194.707 200.342 195.195 198.818 195.195C197.295 195.195 196.077 194.707 195.166 193.73C194.261 192.754 193.809 191.426 193.809 189.746V189.619ZM196.631 189.824C196.631 190.827 196.82 191.595 197.197 192.129C197.575 192.656 198.115 192.92 198.818 192.92C199.502 192.92 200.036 192.66 200.42 192.139C200.804 191.611 200.996 190.771 200.996 189.619C200.996 188.636 200.804 187.874 200.42 187.334C200.036 186.794 199.495 186.523 198.799 186.523C198.109 186.523 197.575 186.794 197.197 187.334C196.82 187.868 196.631 188.698 196.631 189.824ZM208.203 184.434L208.291 185.615C209.04 184.697 210.052 184.238 211.328 184.238C212.689 184.238 213.623 184.775 214.131 185.85C214.873 184.775 215.931 184.238 217.305 184.238C218.451 184.238 219.303 184.574 219.863 185.244C220.423 185.908 220.703 186.911 220.703 188.252V195H217.871V188.262C217.871 187.663 217.754 187.227 217.52 186.953C217.285 186.673 216.872 186.533 216.279 186.533C215.433 186.533 214.847 186.937 214.521 187.744L214.531 195H211.709V188.271C211.709 187.66 211.589 187.217 211.348 186.943C211.107 186.67 210.697 186.533 210.117 186.533C209.316 186.533 208.737 186.865 208.379 187.529V195H205.557V184.434H208.203ZM232.393 189.814C232.393 191.442 232.021 192.747 231.279 193.73C230.544 194.707 229.548 195.195 228.291 195.195C227.223 195.195 226.361 194.824 225.703 194.082V199.062H222.881V184.434H225.498L225.596 185.469C226.279 184.648 227.171 184.238 228.271 184.238C229.574 184.238 230.586 184.72 231.309 185.684C232.031 186.647 232.393 187.975 232.393 189.668V189.814ZM229.57 189.609C229.57 188.626 229.395 187.868 229.043 187.334C228.698 186.8 228.193 186.533 227.529 186.533C226.644 186.533 226.035 186.872 225.703 187.549V191.875C226.048 192.572 226.663 192.92 227.549 192.92C228.896 192.92 229.57 191.816 229.57 189.609ZM233.711 189.619C233.711 188.571 233.913 187.637 234.316 186.816C234.72 185.996 235.299 185.361 236.055 184.912C236.816 184.463 237.699 184.238 238.701 184.238C240.127 184.238 241.289 184.674 242.188 185.547C243.092 186.419 243.597 187.604 243.701 189.102L243.721 189.824C243.721 191.445 243.268 192.747 242.363 193.73C241.458 194.707 240.244 195.195 238.721 195.195C237.197 195.195 235.98 194.707 235.068 193.73C234.163 192.754 233.711 191.426 233.711 189.746V189.619ZM236.533 189.824C236.533 190.827 236.722 191.595 237.1 192.129C237.477 192.656 238.018 192.92 238.721 192.92C239.404 192.92 239.938 192.66 240.322 192.139C240.706 191.611 240.898 190.771 240.898 189.619C240.898 188.636 240.706 187.874 240.322 187.334C239.938 186.794 239.398 186.523 238.701 186.523C238.011 186.523 237.477 186.794 237.1 187.334C236.722 187.868 236.533 188.698 236.533 189.824ZM248.057 184.434L248.145 185.654C248.9 184.71 249.912 184.238 251.182 184.238C252.301 184.238 253.135 184.567 253.682 185.225C254.229 185.882 254.508 186.865 254.521 188.174V195H251.699V188.242C251.699 187.643 251.569 187.21 251.309 186.943C251.048 186.67 250.615 186.533 250.01 186.533C249.215 186.533 248.62 186.872 248.223 187.549V195H245.4V184.434H248.057ZM261.533 195.195C259.984 195.195 258.721 194.72 257.744 193.77C256.774 192.819 256.289 191.553 256.289 189.971V189.697C256.289 188.636 256.494 187.689 256.904 186.855C257.314 186.016 257.894 185.371 258.643 184.922C259.398 184.466 260.257 184.238 261.221 184.238C262.666 184.238 263.802 184.694 264.629 185.605C265.462 186.517 265.879 187.809 265.879 189.482V190.635H259.15C259.242 191.325 259.515 191.878 259.971 192.295C260.433 192.712 261.016 192.92 261.719 192.92C262.806 192.92 263.656 192.526 264.268 191.738L265.654 193.291C265.231 193.89 264.658 194.359 263.936 194.697C263.213 195.029 262.412 195.195 261.533 195.195ZM261.211 186.523C260.651 186.523 260.195 186.712 259.844 187.09C259.499 187.467 259.277 188.008 259.18 188.711H263.105V188.486C263.092 187.861 262.923 187.38 262.598 187.041C262.272 186.696 261.81 186.523 261.211 186.523ZM270.088 184.434L270.176 185.654C270.931 184.71 271.943 184.238 273.213 184.238C274.333 184.238 275.166 184.567 275.713 185.225C276.26 185.882 276.54 186.865 276.553 188.174V195H273.73V188.242C273.73 187.643 273.6 187.21 273.34 186.943C273.079 186.67 272.646 186.533 272.041 186.533C271.247 186.533 270.651 186.872 270.254 187.549V195H267.432V184.434H270.088ZM282.08 181.836V184.434H283.887V186.504H282.08V191.777C282.08 192.168 282.155 192.448 282.305 192.617C282.454 192.786 282.741 192.871 283.164 192.871C283.477 192.871 283.753 192.848 283.994 192.803V194.941C283.441 195.111 282.871 195.195 282.285 195.195C280.306 195.195 279.297 194.196 279.258 192.197V186.504H277.715V184.434H279.258V181.836H282.08ZM291.182 192.08C291.182 191.735 291.009 191.465 290.664 191.27C290.326 191.068 289.779 190.889 289.023 190.732C286.51 190.205 285.254 189.137 285.254 187.529C285.254 186.592 285.641 185.811 286.416 185.186C287.197 184.554 288.216 184.238 289.473 184.238C290.814 184.238 291.885 184.554 292.686 185.186C293.493 185.817 293.896 186.637 293.896 187.646H291.074C291.074 187.243 290.944 186.911 290.684 186.65C290.423 186.383 290.016 186.25 289.463 186.25C288.988 186.25 288.62 186.357 288.359 186.572C288.099 186.787 287.969 187.061 287.969 187.393C287.969 187.705 288.115 187.959 288.408 188.154C288.708 188.343 289.209 188.509 289.912 188.652C290.615 188.789 291.208 188.945 291.689 189.121C293.18 189.668 293.926 190.615 293.926 191.963C293.926 192.926 293.512 193.708 292.686 194.307C291.859 194.899 290.791 195.195 289.482 195.195C288.597 195.195 287.809 195.039 287.119 194.727C286.436 194.408 285.898 193.975 285.508 193.428C285.117 192.874 284.922 192.279 284.922 191.641H287.598C287.624 192.142 287.809 192.526 288.154 192.793C288.499 193.06 288.962 193.193 289.541 193.193C290.081 193.193 290.488 193.092 290.762 192.891C291.042 192.682 291.182 192.412 291.182 192.08Z" fill="white"/>
</g>
<defs>
<clipPath id="clip0">
<rect width="425" height="227" rx="4" fill="white"/>
</clipPath>
</defs>
</svg>
