<svg width="425" height="227" viewBox="0 0 425 227" fill="none" xmlns="http://www.w3.org/2000/svg"><g clip-path="url(#clip0)"><rect width="425" height="227" rx="4" fill="#fff"/><path fill="#fff" d="M0 0h415v227H0z"/><path fill="#fff" d="M0 10h415v60H0z"/><rect x="5" y="10" width="405" height="60" rx="4" fill="#fff"/><path d="M46.164 43.232c-.264 2.256-1.099 4-2.505 5.23-1.396 1.22-3.257 1.831-5.58 1.831-2.52 0-4.542-.903-6.065-2.71-1.514-1.807-2.27-4.224-2.27-7.251v-2.05c0-1.983.35-3.726 1.054-5.23.713-1.504 1.719-2.657 3.017-3.457 1.3-.81 2.803-1.216 4.512-1.216 2.266 0 4.082.635 5.45 1.904 1.367 1.26 2.163 3.008 2.387 5.244h-2.827c-.244-1.699-.777-2.93-1.597-3.691-.81-.762-1.948-1.143-3.413-1.143-1.797 0-3.208.664-4.233 1.992-1.016 1.329-1.524 3.218-1.524 5.67v2.065c0 2.314.484 4.155 1.45 5.522.967 1.368 2.32 2.051 4.058 2.051 1.563 0 2.759-.351 3.589-1.055.84-.712 1.396-1.948 1.67-3.706h2.827zm11.589-6.65a8.127 8.127 0 00-1.333-.102c-1.777 0-2.983.756-3.618 2.27V50h-2.71V34.15h2.636l.044 1.831c.89-1.416 2.149-2.124 3.78-2.124.527 0 .928.069 1.2.206v2.519zm9.289 13.711c-2.148 0-3.897-.703-5.244-2.11-1.348-1.415-2.022-3.305-2.022-5.668v-.498c0-1.573.298-2.974.894-4.205.605-1.24 1.445-2.206 2.52-2.9a6.338 6.338 0 013.515-1.055c2.06 0 3.662.68 4.805 2.037 1.142 1.357 1.714 3.3 1.714 5.83v1.128H62.486c.04 1.562.494 2.827 1.363 3.794.879.956 1.992 1.435 3.34 1.435.957 0 1.767-.195 2.431-.586a6.11 6.11 0 001.743-1.553l1.656 1.29c-1.329 2.04-3.32 3.061-5.977 3.061zm-.337-14.209c-1.094 0-2.012.4-2.754 1.201-.742.791-1.201 1.905-1.377 3.34h7.94v-.205c-.078-1.377-.45-2.442-1.114-3.193-.664-.762-1.562-1.143-2.695-1.143zM86.658 50c-.156-.313-.283-.87-.38-1.67-1.26 1.309-2.764 1.963-4.512 1.963-1.563 0-2.847-.44-3.853-1.318-.996-.89-1.494-2.012-1.494-3.37 0-1.65.625-2.93 1.875-3.837 1.26-.918 3.027-1.377 5.303-1.377h2.636v-1.245c0-.948-.283-1.7-.85-2.256-.566-.567-1.4-.85-2.504-.85-.967 0-1.777.244-2.432.733-.654.488-.981 1.079-.981 1.772H76.74c0-.791.278-1.553.835-2.285.567-.742 1.328-1.328 2.285-1.758.967-.43 2.027-.645 3.179-.645 1.826 0 3.257.46 4.292 1.377 1.035.909 1.572 2.163 1.611 3.765v7.295c0 1.455.186 2.612.557 3.472V50h-2.842zm-4.497-2.065c.85 0 1.655-.22 2.417-.66.762-.44 1.314-1.01 1.655-1.713V42.31H84.11c-3.32 0-4.98.971-4.98 2.915 0 .85.283 1.513.85 1.992.566.478 1.293.718 2.182.718zm15.207-17.623v3.838h2.959v2.095h-2.959v9.83c0 .634.132 1.112.396 1.435.263.312.713.468 1.347.468.313 0 .742-.058 1.289-.175V50a7.852 7.852 0 01-2.08.293c-1.21 0-2.124-.366-2.739-1.099-.615-.732-.923-1.772-.923-3.12v-9.829h-2.886V34.15h2.886v-3.837h2.71zm13.215 19.981c-2.148 0-3.896-.703-5.244-2.11-1.348-1.415-2.022-3.305-2.022-5.668v-.498c0-1.573.298-2.974.894-4.205.605-1.24 1.445-2.206 2.519-2.9a6.34 6.34 0 013.516-1.055c2.061 0 3.662.68 4.805 2.037 1.142 1.357 1.714 3.3 1.714 5.83v1.128h-10.738c.039 1.562.494 2.827 1.363 3.794.879.956 1.992 1.435 3.339 1.435.958 0 1.768-.195 2.432-.586a6.11 6.11 0 001.743-1.553l1.656 1.29c-1.329 2.04-3.321 3.061-5.977 3.061zm-.337-14.209c-1.094 0-2.012.4-2.754 1.201-.742.791-1.201 1.905-1.377 3.34h7.94v-.205c-.078-1.377-.45-2.442-1.114-3.193-.664-.762-1.562-1.143-2.695-1.143zm25.038 3.296l5.567-10.708h3.193l-7.354 13.374V50h-2.812v-7.954l-7.354-13.374h3.223l5.537 10.708zm9.904 2.549c0-1.553.303-2.95.909-4.19.615-1.24 1.465-2.197 2.549-2.87 1.093-.675 2.338-1.012 3.735-1.012 2.158 0 3.901.748 5.229 2.242 1.338 1.494 2.007 3.481 2.007 5.962v.19c0 1.543-.298 2.93-.893 4.16-.586 1.22-1.431 2.173-2.535 2.857-1.093.683-2.353 1.025-3.779 1.025-2.148 0-3.891-.747-5.229-2.241-1.328-1.494-1.993-3.472-1.993-5.933v-.19zm2.725.322c0 1.758.405 3.169 1.216 4.233.82 1.065 1.914 1.597 3.281 1.597 1.377 0 2.471-.537 3.281-1.611.811-1.084 1.216-2.598 1.216-4.541 0-1.739-.415-3.145-1.245-4.219-.82-1.084-1.914-1.626-3.281-1.626-1.338 0-2.417.532-3.237 1.597-.821 1.064-1.231 2.588-1.231 4.57zm25.388 6.182c-1.055 1.24-2.603 1.86-4.644 1.86-1.689 0-2.978-.488-3.867-1.465-.879-.986-1.323-2.441-1.333-4.365V34.15h2.71v10.24c0 2.402.977 3.603 2.93 3.603 2.07 0 3.447-.771 4.131-2.314V34.15h2.71V50h-2.579l-.058-1.567zm14.928-11.851a8.122 8.122 0 00-1.333-.102c-1.777 0-2.983.756-3.618 2.27V50h-2.71V34.15h2.637l.044 1.831c.889-1.416 2.148-2.124 3.779-2.124.528 0 .928.069 1.201.206v2.519zm23.149 7.852h-8.936L200.436 50h-2.901l8.145-21.328h2.461L216.3 50h-2.886l-2.036-5.566zm-8.086-2.315h7.251l-3.633-9.975-3.618 9.975zm29.343.132c0 2.412-.552 4.355-1.656 5.83-1.103 1.475-2.597 2.212-4.482 2.212-1.924 0-3.437-.61-4.541-1.831v7.632h-2.71V34.15h2.476l.132 1.758c1.103-1.367 2.636-2.05 4.599-2.05 1.904 0 3.408.717 4.512 2.153 1.113 1.435 1.67 3.432 1.67 5.991v.249zm-2.71-.308c0-1.787-.381-3.198-1.143-4.233-.761-1.035-1.806-1.553-3.135-1.553-1.64 0-2.871.728-3.691 2.183v7.573c.811 1.445 2.051 2.168 3.721 2.168 1.299 0 2.329-.513 3.091-1.538.771-1.035 1.157-2.568 1.157-4.6zm20.055.308c0 2.412-.551 4.355-1.655 5.83-1.103 1.475-2.597 2.212-4.482 2.212-1.924 0-3.438-.61-4.541-1.831v7.632h-2.71V34.15h2.475l.132 1.758c1.104-1.367 2.637-2.05 4.6-2.05 1.904 0 3.408.717 4.512 2.153 1.113 1.435 1.669 3.432 1.669 5.991v.249zm-2.709-.308c0-1.787-.381-3.198-1.143-4.233-.762-1.035-1.807-1.553-3.135-1.553-1.64 0-2.871.728-3.691 2.183v7.573c.81 1.445 2.051 2.168 3.72 2.168 1.299 0 2.33-.513 3.091-1.538.772-1.035 1.158-2.568 1.158-4.6zM256.882 50h-2.71V27.5h2.71V50zm7.795 0h-2.71V34.15h2.71V50zm-2.93-20.054c0-.44.132-.81.396-1.113.273-.303.673-.454 1.201-.454.527 0 .927.151 1.201.454.273.303.41.674.41 1.113 0 .44-.137.806-.41 1.099-.274.293-.674.44-1.201.44-.528 0-.928-.147-1.201-.44-.264-.293-.396-.66-.396-1.099zm14.138 18.135c.967 0 1.811-.293 2.534-.879.723-.586 1.123-1.318 1.201-2.197h2.564c-.049.908-.362 1.772-.938 2.593-.576.82-1.348 1.474-2.314 1.962a6.614 6.614 0 01-3.047.733c-2.158 0-3.877-.718-5.156-2.153-1.27-1.446-1.905-3.418-1.905-5.918v-.454c0-1.543.283-2.916.85-4.117.566-1.2 1.377-2.133 2.431-2.798 1.065-.663 2.32-.996 3.765-.996 1.777 0 3.252.533 4.424 1.597 1.182 1.065 1.811 2.446 1.89 4.146h-2.564c-.078-1.026-.469-1.866-1.172-2.52-.693-.664-1.552-.996-2.578-.996-1.377 0-2.446.498-3.208 1.494-.752.986-1.128 2.417-1.128 4.292v.513c0 1.826.376 3.232 1.128 4.219.752.986 1.826 1.48 3.223 1.48zM295.516 50c-.157-.313-.284-.87-.381-1.67-1.26 1.309-2.764 1.963-4.512 1.963-1.562 0-2.847-.44-3.852-1.318-.997-.89-1.495-2.012-1.495-3.37 0-1.65.625-2.93 1.875-3.837 1.26-.918 3.028-1.377 5.303-1.377h2.637v-1.245c0-.948-.283-1.7-.85-2.256-.566-.567-1.401-.85-2.505-.85-.966 0-1.777.244-2.431.733-.655.488-.982 1.079-.982 1.772h-2.724c0-.791.278-1.553.835-2.285.566-.742 1.328-1.328 2.285-1.758.967-.43 2.026-.645 3.178-.645 1.827 0 3.257.46 4.292 1.377 1.036.909 1.573 2.163 1.612 3.765v7.295c0 1.455.185 2.612.556 3.472V50h-2.841zm-4.497-2.065a4.76 4.76 0 002.417-.66c.761-.44 1.313-1.01 1.655-1.713V42.31h-2.124c-3.321 0-4.981.971-4.981 2.915 0 .85.284 1.513.85 1.992.566.478 1.294.718 2.183.718zm15.207-17.623v3.838h2.959v2.095h-2.959v9.83c0 .634.131 1.112.395 1.435.264.312.713.468 1.348.468.312 0 .742-.058 1.289-.175V50a7.856 7.856 0 01-2.08.293c-1.211 0-2.124-.366-2.74-1.099-.615-.732-.922-1.772-.922-3.12v-9.829h-2.886V34.15h2.886v-3.837h2.71zM315.808 50h-2.71V34.15h2.71V50zm-2.93-20.054c0-.44.132-.81.395-1.113.274-.303.674-.454 1.202-.454.527 0 .927.151 1.201.454.273.303.41.674.41 1.113 0 .44-.137.806-.41 1.099-.274.293-.674.44-1.201.44-.528 0-.928-.147-1.202-.44-.263-.293-.395-.66-.395-1.099zm7.062 11.983c0-1.553.303-2.95.909-4.19.615-1.24 1.464-2.197 2.548-2.87 1.094-.675 2.339-1.012 3.736-1.012 2.158 0 3.901.748 5.229 2.242 1.338 1.494 2.007 3.481 2.007 5.962v.19c0 1.543-.298 2.93-.893 4.16-.586 1.22-1.431 2.173-2.535 2.857-1.093.683-2.353 1.025-3.779 1.025-2.148 0-3.891-.747-5.229-2.241-1.329-1.494-1.993-3.472-1.993-5.933v-.19zm2.725.322c0 1.758.405 3.169 1.216 4.233.82 1.065 1.914 1.597 3.281 1.597 1.377 0 2.471-.537 3.281-1.611.811-1.084 1.216-2.598 1.216-4.541 0-1.739-.415-3.145-1.245-4.219-.82-1.084-1.914-1.626-3.281-1.626-1.338 0-2.417.532-3.237 1.597-.821 1.064-1.231 2.588-1.231 4.57zm18.166-8.1l.088 1.992c1.211-1.524 2.793-2.286 4.746-2.286 3.35 0 5.039 1.89 5.068 5.67V50h-2.71V39.512c-.009-1.143-.273-1.988-.791-2.535-.507-.546-1.303-.82-2.387-.82-.879 0-1.651.235-2.315.703a4.772 4.772 0 00-1.552 1.846V50h-2.71V34.15h2.563z" fill="#000"/><rect x="41" y="81" width="353" height="58" rx="3" fill="#fff" stroke="#3F51B5" stroke-width="2"/><path d="M59.574 109.428H53.41v5.039h7.159V116h-9.034v-14.219h8.936v1.543h-7.06v4.571h6.162v1.533zm4.755-3.994l.059 1.328c.807-1.016 1.862-1.524 3.164-1.524 2.233 0 3.36 1.26 3.379 3.78V116h-1.807v-6.992c-.006-.762-.182-1.325-.527-1.69-.339-.364-.87-.547-1.592-.547-.586 0-1.1.157-1.543.469a3.187 3.187 0 00-1.035 1.231V116H62.62v-10.566h1.71zm11.778-2.559v2.559h1.972v1.396h-1.972v6.553c0 .423.088.742.263.957.176.208.476.312.899.312.208 0 .495-.039.86-.117V116c-.476.13-.938.195-1.388.195-.807 0-1.415-.244-1.826-.732-.41-.488-.615-1.182-.615-2.08v-6.553h-1.924v-1.396H74.3v-2.559h1.807zm8.476 13.32c-1.432 0-2.597-.468-3.496-1.406-.898-.944-1.347-2.204-1.347-3.779v-.332c0-1.048.198-1.983.595-2.803.404-.827.964-1.471 1.68-1.934a4.231 4.231 0 012.344-.703c1.373 0 2.441.453 3.203 1.358.761.905 1.142 2.2 1.142 3.886v.752h-7.158c.026 1.042.329 1.885.908 2.53.586.638 1.329.957 2.227.957.638 0 1.178-.131 1.621-.391.443-.26.83-.605 1.162-1.035l1.104.859c-.886 1.361-2.214 2.041-3.985 2.041zm-.224-9.472c-.73 0-1.341.267-1.836.8-.495.528-.801 1.27-.918 2.227h5.293v-.137c-.052-.918-.3-1.627-.742-2.129-.443-.507-1.042-.761-1.797-.761zm11.552.332a5.364 5.364 0 00-.888-.069c-1.185 0-1.99.505-2.412 1.514v7.5h-1.807v-10.566h1.758l.03 1.22c.592-.944 1.431-1.416 2.519-1.416.351 0 .618.046.8.137v1.68zm11.25 1.865l3.711-7.139h2.129l-4.902 8.916V116h-1.875v-5.303l-4.902-8.916h2.148l3.691 7.139zm6.27 1.699c0-1.035.202-1.966.605-2.793.411-.827.977-1.465 1.7-1.914.729-.449 1.559-.674 2.49-.674 1.439 0 2.601.498 3.486 1.494.892.997 1.338 2.321 1.338 3.975v.127c0 1.029-.198 1.953-.596 2.773a4.445 4.445 0 01-1.689 1.905c-.729.455-1.569.683-2.52.683-1.432 0-2.594-.498-3.486-1.494-.885-.996-1.328-2.314-1.328-3.955v-.127zm1.816.215c0 1.172.271 2.113.811 2.822.547.71 1.276 1.065 2.187 1.065.918 0 1.648-.358 2.188-1.075.54-.722.81-1.731.81-3.027 0-1.159-.276-2.096-.83-2.812-.546-.723-1.276-1.084-2.187-1.084-.892 0-1.611.354-2.158 1.064-.547.71-.821 1.725-.821 3.047zm16.592 4.121c-.703.827-1.735 1.24-3.096 1.24-1.126 0-1.985-.325-2.578-.976-.586-.658-.882-1.628-.888-2.91v-6.875h1.806v6.826c0 1.601.651 2.402 1.953 2.402 1.381 0 2.299-.514 2.754-1.543v-7.685h1.807V116h-1.719l-.039-1.045zm9.619-7.9a5.353 5.353 0 00-.888-.069c-1.185 0-1.989.505-2.412 1.514v7.5h-1.807v-10.566h1.758l.029 1.22c.592-.944 1.432-1.416 2.52-1.416.351 0 .618.046.8.137v1.68zm14.766 5.234h-5.957L148.929 116h-1.934l5.43-14.219h1.641L159.505 116h-1.924l-1.357-3.711zm-5.391-1.543h4.834l-2.422-6.65-2.412 6.65zm19.229.088c0 1.608-.368 2.904-1.104 3.887-.735.983-1.731 1.474-2.988 1.474-1.283 0-2.292-.407-3.027-1.22v5.087h-1.807v-14.628h1.65l.088 1.171c.736-.911 1.758-1.367 3.067-1.367 1.269 0 2.272.479 3.008 1.436.742.957 1.113 2.288 1.113 3.994v.166zm-1.807-.205c0-1.191-.254-2.132-.762-2.822-.507-.69-1.204-1.036-2.089-1.036-1.094 0-1.914.486-2.461 1.456v5.048c.54.964 1.367 1.446 2.48 1.446.866 0 1.553-.342 2.061-1.026.514-.69.771-1.712.771-3.066zm13.037.205c0 1.608-.368 2.904-1.103 3.887-.736.983-1.732 1.474-2.988 1.474-1.283 0-2.292-.407-3.028-1.22v5.087h-1.806v-14.628h1.65l.088 1.171c.735-.911 1.758-1.367 3.066-1.367 1.27 0 2.272.479 3.008 1.436.742.957 1.113 2.288 1.113 3.994v.166zm-1.806-.205c0-1.191-.254-2.132-.762-2.822s-1.204-1.036-2.09-1.036c-1.094 0-1.914.486-2.461 1.456v5.048c.541.964 1.367 1.446 2.481 1.446.866 0 1.552-.342 2.06-1.026.514-.69.772-1.712.772-3.066zM185.56 116h-1.807v-15h1.807v15zm4.863 0h-1.806v-10.566h1.806V116zm-1.953-13.369c0-.293.088-.541.264-.742.182-.202.449-.303.8-.303.352 0 .619.101.801.303.183.201.274.449.274.742s-.091.537-.274.732c-.182.196-.449.293-.801.293-.351 0-.618-.097-.8-.293a1.052 1.052 0 01-.264-.732zm9.092 12.09c.644 0 1.208-.196 1.689-.586.482-.391.749-.879.801-1.465h1.709c-.033.605-.241 1.182-.625 1.728a4.098 4.098 0 01-1.543 1.309 4.402 4.402 0 01-2.031.488c-1.439 0-2.585-.478-3.438-1.435-.846-.964-1.269-2.279-1.269-3.946v-.302c0-1.029.189-1.944.566-2.744.378-.801.918-1.423 1.621-1.866.71-.442 1.547-.664 2.51-.664 1.185 0 2.168.355 2.949 1.065.788.709 1.208 1.631 1.26 2.763h-1.709c-.052-.683-.312-1.243-.781-1.679-.462-.443-1.035-.664-1.719-.664-.918 0-1.631.332-2.139.996-.501.657-.752 1.611-.752 2.861v.342c0 1.217.251 2.155.752 2.812.502.658 1.218.987 2.149.987zM210.316 116c-.104-.208-.189-.579-.254-1.113-.84.872-1.843 1.308-3.008 1.308-1.042 0-1.898-.293-2.568-.879-.664-.592-.996-1.341-.996-2.246 0-1.1.416-1.953 1.25-2.558.839-.612 2.018-.918 3.535-.918h1.758v-.83c0-.632-.189-1.133-.567-1.504-.377-.378-.934-.567-1.67-.567-.644 0-1.185.163-1.621.489-.436.325-.654.719-.654 1.181h-1.817c0-.527.186-1.035.557-1.523.378-.495.885-.886 1.523-1.172a5.17 5.17 0 012.12-.43c1.217 0 2.171.306 2.861.918.69.606 1.048 1.442 1.074 2.51v4.863c0 .97.124 1.742.371 2.315V116h-1.894zm-2.998-1.377c.566 0 1.103-.146 1.611-.439.508-.293.876-.674 1.104-1.143v-2.168h-1.416c-2.214 0-3.321.648-3.321 1.943 0 .567.189 1.01.567 1.329.377.319.862.478 1.455.478zm9.804-11.748v2.559h1.973v1.396h-1.973v6.553c0 .423.088.742.264.957.176.208.475.312.898.312.209 0 .495-.039.86-.117V116c-.475.13-.938.195-1.387.195-.807 0-1.416-.244-1.826-.732-.41-.488-.615-1.182-.615-2.08v-6.553h-1.924v-1.396h1.924v-2.559h1.806zM223.177 116h-1.807v-10.566h1.807V116zm-1.953-13.369c0-.293.088-.541.264-.742.182-.202.449-.303.8-.303.352 0 .619.101.801.303.182.201.274.449.274.742s-.092.537-.274.732c-.182.196-.449.293-.801.293-.351 0-.618-.097-.8-.293a1.052 1.052 0 01-.264-.732zm4.375 7.988c0-1.035.202-1.966.605-2.793.411-.827.977-1.465 1.7-1.914.729-.449 1.559-.674 2.49-.674 1.439 0 2.601.498 3.486 1.494.892.997 1.338 2.321 1.338 3.975v.127c0 1.029-.198 1.953-.596 2.773a4.445 4.445 0 01-1.689 1.905c-.729.455-1.569.683-2.52.683-1.432 0-2.594-.498-3.486-1.494-.885-.996-1.328-2.314-1.328-3.955v-.127zm1.816.215c0 1.172.271 2.113.811 2.822.547.71 1.276 1.065 2.187 1.065.918 0 1.648-.358 2.188-1.075.54-.722.81-1.731.81-3.027 0-1.159-.276-2.096-.83-2.812-.547-.723-1.276-1.084-2.187-1.084-.892 0-1.611.354-2.158 1.064-.547.71-.821 1.725-.821 3.047zm11.778-5.4l.058 1.328c.808-1.016 1.862-1.524 3.164-1.524 2.233 0 3.36 1.26 3.379 3.78V116h-1.806v-6.992c-.007-.762-.183-1.325-.528-1.69-.338-.364-.869-.547-1.592-.547-.585 0-1.1.157-1.542.469a3.192 3.192 0 00-1.036 1.231V116h-1.806v-10.566h1.709zm8.672.351l-1.026-.703c.606-.846.918-1.738.938-2.676V101h1.787v1.27c-.007.651-.169 1.302-.488 1.953-.313.644-.717 1.165-1.211 1.562zm8.935 7.412c0-.488-.185-.866-.557-1.133-.364-.273-1.005-.507-1.923-.703-.912-.195-1.638-.429-2.178-.703-.534-.273-.931-.599-1.191-.976-.254-.378-.381-.827-.381-1.348 0-.866.364-1.598 1.093-2.197.736-.599 1.674-.899 2.813-.899 1.198 0 2.168.31 2.91.928.749.619 1.123 1.41 1.123 2.373h-1.816c0-.495-.212-.921-.635-1.279-.417-.358-.944-.537-1.582-.537-.658 0-1.172.143-1.543.429a1.354 1.354 0 00-.557 1.123c0 .437.173.765.518.987.345.221.967.433 1.865.634.905.202 1.637.443 2.197.723.56.28.974.619 1.241 1.016.273.39.41.869.41 1.435 0 .944-.378 1.703-1.133 2.276-.755.566-1.735.849-2.94.849-.846 0-1.595-.149-2.246-.449-.651-.299-1.162-.716-1.533-1.25a3.07 3.07 0 01-.547-1.748h1.807c.033.606.273 1.087.723 1.445.455.352 1.054.528 1.796.528.684 0 1.231-.137 1.641-.41.417-.28.625-.651.625-1.114zM277.132 116h-1.885l-7.158-10.957V116h-1.885v-14.219h1.885l7.178 11.006v-11.006h1.865V116zm9.57 0c-.104-.208-.188-.579-.253-1.113-.84.872-1.843 1.308-3.008 1.308-1.042 0-1.898-.293-2.569-.879-.664-.592-.996-1.341-.996-2.246 0-1.1.417-1.953 1.25-2.558.84-.612 2.019-.918 3.535-.918h1.758v-.83c0-.632-.189-1.133-.566-1.504-.378-.378-.934-.567-1.67-.567-.645 0-1.185.163-1.621.489-.436.325-.654.719-.654 1.181h-1.817c0-.527.186-1.035.557-1.523.377-.495.885-.886 1.523-1.172a5.168 5.168 0 012.119-.43c1.218 0 2.172.306 2.862.918.69.606 1.048 1.442 1.074 2.51v4.863c0 .97.124 1.742.371 2.315V116h-1.895zm-2.998-1.377c.567 0 1.104-.146 1.612-.439.508-.293.875-.674 1.103-1.143v-2.168h-1.416c-2.213 0-3.32.648-3.32 1.943 0 .567.189 1.01.566 1.329.378.319.863.478 1.455.478zm9.053-9.189l.049 1.171c.775-.911 1.82-1.367 3.135-1.367 1.478 0 2.483.567 3.017 1.7a4.027 4.027 0 011.368-1.231c.566-.312 1.233-.469 2.001-.469 2.318 0 3.497 1.227 3.536 3.682V116h-1.807v-6.973c0-.755-.173-1.318-.518-1.689-.345-.378-.924-.567-1.738-.567-.67 0-1.227.202-1.67.606-.443.397-.7.934-.771 1.611V116h-1.817v-6.924c0-1.536-.752-2.305-2.256-2.305-1.184 0-1.995.505-2.431 1.514V116h-1.807v-10.566h1.709zm20.225 10.761c-1.433 0-2.598-.468-3.496-1.406-.899-.944-1.348-2.204-1.348-3.779v-.332c0-1.048.199-1.983.596-2.803.403-.827.963-1.471 1.679-1.934a4.233 4.233 0 012.344-.703c1.374 0 2.442.453 3.203 1.358.762.905 1.143 2.2 1.143 3.886v.752h-7.158c.026 1.042.328 1.885.908 2.53.586.638 1.328.957 2.226.957.638 0 1.179-.131 1.622-.391a4.07 4.07 0 001.162-1.035l1.103.859c-.885 1.361-2.213 2.041-3.984 2.041zm-.225-9.472c-.729 0-1.341.267-1.836.8-.495.528-.801 1.27-.918 2.227h5.293v-.137c-.052-.918-.299-1.627-.742-2.129-.443-.507-1.042-.761-1.797-.761z" fill="#000" fill-opacity=".38"/><rect x="40" y="157" width="265" height="60" rx="4" fill="#3F51B5"/><path d="M58.643 191.27c0-.554-.196-.977-.586-1.27-.391-.299-1.094-.612-2.11-.938-1.015-.332-1.82-.657-2.412-.976-1.614-.872-2.422-2.048-2.422-3.525 0-.769.215-1.452.645-2.051.436-.606 1.058-1.078 1.865-1.416.814-.339 1.725-.508 2.734-.508 1.016 0 1.921.185 2.715.557.794.364 1.41.882 1.846 1.552.443.671.664 1.433.664 2.285h-2.93c0-.651-.205-1.155-.615-1.513-.41-.365-.986-.547-1.728-.547-.717 0-1.273.153-1.67.459a1.419 1.419 0 00-.596 1.191c0 .463.231.85.693 1.162.47.313 1.156.606 2.06.879 1.668.502 2.882 1.123 3.644 1.866.761.742 1.142 1.666 1.142 2.773 0 1.23-.465 2.197-1.397 2.9-.93.697-2.184 1.045-3.76 1.045-1.093 0-2.09-.198-2.987-.595-.899-.404-1.586-.954-2.061-1.651-.469-.696-.703-1.504-.703-2.422h2.94c0 1.569.937 2.354 2.812 2.354.696 0 1.24-.14 1.63-.42.391-.287.587-.684.587-1.191zM69.512 195a3.139 3.139 0 01-.284-.947c-.683.761-1.572 1.142-2.665 1.142-1.036 0-1.895-.299-2.579-.898-.677-.599-1.015-1.354-1.015-2.266 0-1.12.413-1.979 1.24-2.578.833-.599 2.034-.902 3.603-.908h1.3v-.606c0-.488-.128-.878-.381-1.171-.248-.293-.642-.44-1.182-.44-.475 0-.85.114-1.123.342-.267.228-.4.54-.4.937h-2.823c0-.612.189-1.178.566-1.699.378-.521.912-.928 1.602-1.22.69-.3 1.465-.45 2.324-.45 1.302 0 2.334.329 3.096.987.768.651 1.152 1.569 1.152 2.754v4.58c.007 1.002.147 1.761.42 2.275V195h-2.851zm-2.334-1.963c.416 0 .8-.091 1.152-.273.352-.189.612-.44.781-.752v-1.817h-1.054c-1.413 0-2.165.489-2.256 1.465l-.01.166c0 .352.124.641.371.869.247.228.586.342 1.016.342zm10.732-1.484l1.963-7.119h2.95L79.257 195h-2.695l-3.565-10.566h2.95l1.962 7.119zm10.889 3.642c-1.55 0-2.813-.475-3.79-1.425-.97-.951-1.454-2.217-1.454-3.799v-.274c0-1.061.205-2.008.615-2.842.41-.839.99-1.484 1.738-1.933.755-.456 1.615-.684 2.578-.684 1.446 0 2.582.456 3.408 1.367.834.912 1.25 2.204 1.25 3.877v1.153h-6.728c.091.69.365 1.243.82 1.66.463.417 1.045.625 1.748.625 1.088 0 1.937-.394 2.55-1.182l1.386 1.553c-.423.599-.996 1.068-1.719 1.406-.722.332-1.523.498-2.402.498zm-.322-8.672c-.56 0-1.016.189-1.368.567-.345.377-.566.918-.664 1.621h3.926v-.225c-.013-.625-.182-1.106-.508-1.445-.325-.345-.787-.518-1.386-.518zm19.472 5.547h-5.137l-.976 2.93h-3.115l5.293-14.219h2.715L112.051 195h-3.115l-.987-2.93zm-4.345-2.373h3.554l-1.787-5.322-1.767 5.322zm11.718-5.263l.088 1.22c.755-.944 1.768-1.416 3.037-1.416 1.12 0 1.953.329 2.5.987.547.657.827 1.64.84 2.949V195h-2.822v-6.758c0-.599-.13-1.032-.391-1.299-.26-.273-.693-.41-1.299-.41-.794 0-1.39.339-1.787 1.016V195h-2.822v-10.566h2.656zm8.174 5.205c0-1.647.368-2.959 1.104-3.936.742-.976 1.754-1.465 3.037-1.465 1.028 0 1.878.384 2.549 1.153V180h2.832v15h-2.549l-.137-1.123c-.703.879-1.608 1.318-2.715 1.318-1.243 0-2.243-.488-2.998-1.465-.749-.983-1.123-2.347-1.123-4.091zm2.822.205c0 .989.173 1.748.518 2.275.345.527.846.791 1.504.791.872 0 1.487-.368 1.846-1.103v-4.17c-.352-.736-.961-1.104-1.827-1.104-1.36 0-2.041 1.104-2.041 3.311zm22.08 2.226h-5.136l-.977 2.93h-3.115l5.293-14.219h2.715L152.5 195h-3.115l-.987-2.93zm-4.345-2.373h3.554l-1.787-5.322-1.767 5.322zm9.15-.058c0-1.647.368-2.959 1.104-3.936.742-.976 1.754-1.465 3.037-1.465 1.028 0 1.878.384 2.549 1.153V180h2.832v15h-2.549l-.137-1.123c-.703.879-1.608 1.318-2.715 1.318-1.243 0-2.243-.488-2.998-1.465-.749-.983-1.123-2.347-1.123-4.091zm2.822.205c0 .989.173 1.748.518 2.275.345.527.846.791 1.504.791.872 0 1.488-.368 1.846-1.103v-4.17c-.352-.736-.961-1.104-1.827-1.104-1.36 0-2.041 1.104-2.041 3.311zm8.448-.205c0-1.647.367-2.959 1.103-3.936.742-.976 1.755-1.465 3.037-1.465 1.029 0 1.879.384 2.549 1.153V180h2.832v15h-2.549l-.136-1.123c-.704.879-1.608 1.318-2.715 1.318-1.244 0-2.243-.488-2.998-1.465-.749-.983-1.123-2.347-1.123-4.091zm2.822.205c0 .989.172 1.748.517 2.275.346.527.847.791 1.504.791.873 0 1.488-.368 1.846-1.103v-4.17c-.351-.736-.96-1.104-1.826-1.104-1.361 0-2.041 1.104-2.041 3.311zm25.215.42c-.111 1.53-.677 2.734-1.699 3.613-1.016.879-2.357 1.318-4.024 1.318-1.823 0-3.258-.612-4.307-1.836-1.041-1.23-1.562-2.916-1.562-5.058v-.869c0-1.368.241-2.572.723-3.614.481-1.041 1.168-1.839 2.06-2.392.899-.56 1.94-.84 3.125-.84 1.641 0 2.962.439 3.965 1.318 1.003.879 1.582 2.113 1.738 3.701H189.6c-.072-.917-.329-1.582-.772-1.992-.436-.416-1.103-.625-2.002-.625-.976 0-1.709.352-2.197 1.055-.482.697-.729 1.781-.742 3.252v1.074c0 1.537.231 2.66.693 3.369.469.71 1.205 1.065 2.207 1.065.905 0 1.579-.205 2.022-.615.449-.417.706-1.058.771-1.924h2.93zm1.299-.645c0-1.048.201-1.982.605-2.803a4.444 4.444 0 011.738-1.904c.762-.449 1.644-.674 2.647-.674 1.426 0 2.588.436 3.486 1.309.905.872 1.41 2.057 1.514 3.555l.019.722c0 1.621-.452 2.923-1.357 3.906-.905.977-2.119 1.465-3.643 1.465-1.523 0-2.741-.488-3.652-1.465-.905-.976-1.357-2.304-1.357-3.984v-.127zm2.822.205c0 1.003.189 1.771.566 2.305.378.527.918.791 1.621.791.684 0 1.218-.26 1.602-.781.384-.528.576-1.368.576-2.52 0-.983-.192-1.745-.576-2.285-.384-.54-.925-.811-1.621-.811-.69 0-1.224.271-1.602.811-.377.534-.566 1.364-.566 2.49zm11.572-5.39l.088 1.181c.749-.918 1.761-1.377 3.037-1.377 1.361 0 2.295.537 2.803 1.612.742-1.075 1.8-1.612 3.174-1.612 1.146 0 1.998.336 2.558 1.006.56.664.84 1.667.84 3.008V195h-2.832v-6.738c0-.599-.117-1.035-.351-1.309-.235-.28-.648-.42-1.241-.42-.846 0-1.432.404-1.758 1.211l.01 7.256h-2.822v-6.729c0-.611-.12-1.054-.361-1.328-.241-.273-.651-.41-1.231-.41-.801 0-1.38.332-1.738.996V195h-2.822v-10.566h2.646zm24.19 5.38c0 1.628-.372 2.933-1.114 3.916-.735.977-1.731 1.465-2.988 1.465-1.068 0-1.93-.371-2.588-1.113v4.98h-2.822v-14.628h2.617l.098 1.035c.683-.821 1.575-1.231 2.675-1.231 1.303 0 2.315.482 3.038 1.446.722.963 1.084 2.291 1.084 3.984v.146zm-2.823-.205c0-.983-.175-1.741-.527-2.275-.345-.534-.85-.801-1.514-.801-.885 0-1.494.339-1.826 1.016v4.326c.345.697.96 1.045 1.846 1.045 1.347 0 2.021-1.104 2.021-3.311zm4.141.01c0-1.048.202-1.982.605-2.803a4.44 4.44 0 011.739-1.904c.761-.449 1.644-.674 2.646-.674 1.426 0 2.588.436 3.487 1.309.904.872 1.409 2.057 1.513 3.555l.02.722c0 1.621-.453 2.923-1.358 3.906-.905.977-2.119 1.465-3.642 1.465-1.524 0-2.741-.488-3.653-1.465-.905-.976-1.357-2.304-1.357-3.984v-.127zm2.822.205c0 1.003.189 1.771.567 2.305.377.527.918.791 1.621.791.683 0 1.217-.26 1.601-.781.384-.528.576-1.368.576-2.52 0-.983-.192-1.745-.576-2.285-.384-.54-.924-.811-1.621-.811-.69 0-1.224.271-1.601.811-.378.534-.567 1.364-.567 2.49zm11.524-5.39l.088 1.22c.755-.944 1.767-1.416 3.037-1.416 1.119 0 1.953.329 2.5.987.547.657.826 1.64.839 2.949V195h-2.822v-6.758c0-.599-.13-1.032-.39-1.299-.261-.273-.694-.41-1.299-.41-.795 0-1.39.339-1.787 1.016V195H245.4v-10.566h2.657zm13.476 10.761c-1.549 0-2.812-.475-3.789-1.425-.97-.951-1.455-2.217-1.455-3.799v-.274c0-1.061.205-2.008.615-2.842.41-.839.99-1.484 1.739-1.933.755-.456 1.614-.684 2.578-.684 1.445 0 2.581.456 3.408 1.367.833.912 1.25 2.204 1.25 3.877v1.153h-6.729c.092.69.365 1.243.821 1.66.462.417 1.045.625 1.748.625 1.087 0 1.937-.394 2.549-1.182l1.386 1.553c-.423.599-.996 1.068-1.718 1.406-.723.332-1.524.498-2.403.498zm-.322-8.672c-.56 0-1.016.189-1.367.567-.345.377-.567.918-.664 1.621h3.925v-.225c-.013-.625-.182-1.106-.507-1.445-.326-.345-.788-.518-1.387-.518zm8.877-2.089l.088 1.22c.755-.944 1.767-1.416 3.037-1.416 1.12 0 1.953.329 2.5.987.547.657.827 1.64.84 2.949V195h-2.823v-6.758c0-.599-.13-1.032-.39-1.299-.261-.273-.694-.41-1.299-.41-.794 0-1.39.339-1.787 1.016V195h-2.822v-10.566h2.656zm11.992-2.598v2.598h1.807v2.07h-1.807v5.273c0 .391.075.671.225.84.149.169.436.254.859.254.313 0 .589-.023.83-.068v2.138a5.784 5.784 0 01-1.709.254c-1.979 0-2.988-.999-3.027-2.998v-5.693h-1.543v-2.07h1.543v-2.598h2.822zm9.102 10.244c0-.345-.173-.615-.518-.81-.338-.202-.885-.381-1.641-.538-2.513-.527-3.769-1.595-3.769-3.203 0-.937.387-1.718 1.162-2.343.781-.632 1.8-.948 3.057-.948 1.341 0 2.412.316 3.213.948.807.631 1.21 1.451 1.21 2.46h-2.822c0-.403-.13-.735-.39-.996-.261-.267-.668-.4-1.221-.4-.475 0-.843.107-1.104.322a1.02 1.02 0 00-.39.821c0 .312.146.566.439.761.3.189.801.355 1.504.498.703.137 1.296.293 1.777.469 1.491.547 2.237 1.494 2.237 2.842 0 .963-.414 1.745-1.24 2.344-.827.592-1.895.888-3.204.888-.885 0-1.673-.156-2.363-.468-.683-.319-1.221-.752-1.611-1.299-.391-.554-.586-1.149-.586-1.787h2.676c.026.501.211.885.556 1.152.345.267.808.4 1.387.4.54 0 .947-.101 1.221-.302.28-.209.42-.479.42-.811z" fill="#fff"/></g><defs><clipPath id="clip0"><rect width="425" height="227" rx="4" fill="#fff"/></clipPath></defs></svg>